<svg width="132" height="132" viewBox="0 0 132 132" fill="none" xmlns="http://www.w3.org/2000/svg">
<rect width="132" height="132" rx="30.8" fill="#7B2570"/>
<path d="M34.6985 42.2507C38.1921 46.2182 41.1616 50.9559 43.4748 55.8541M43.4748 55.8541C50.3927 70.5024 52.8444 87.7697 43.0806 87.7697C32.472 87.7697 35.1856 67.8065 43.4748 55.8541ZM43.4748 55.8541C46.3521 51.7048 49.3862 48.1881 53.9246 48.1881C64.3409 48.1881 67.492 67.0654 67.8919 82.1247M67.8919 82.1247C67.8778 85.067 67.8919 87.4457 67.8919 89.6189C67.8983 87.3424 67.8953 85.067 67.8919 82.1247ZM67.8919 82.1247C68.4678 68.2599 71.5513 48.1881 83.3586 48.1881C97.3012 48.1881 97.3012 76.3751 97.3012 89.7491" stroke="white" stroke-width="7.50428"/>
</svg>
